<svg width="34" height="16" viewBox="0 0 34 16" fill="none" xmlns="http://www.w3.org/2000/svg">
<path id="AUT" d="M20 1.5L24 2L26.5 0H29L29.5 1L32 1.5L32.5 2.5L33 4.5L34 5.5L33.5 6L33 7H31.5L31 8L32 9V10.5L30.5 11L29.5 12V13L29 14L28 14.5H27L26 14L24.5 14.5L24 15.5L22.5 16L21 15.5H19.5L17 15L14.5 14L13.5 13V11.5L12.5 12L12 12.5H10.5L9 13L8 13.5H7L6 13H4.5L3.5 12.5V11.5L3 10L2.5 9.5L0.5 8.5L1.5 8L3.5 8.5L4.5 9.5L5.5 10L6.5 9L8 8.5L8.5 9.5H10L10.5 8.5H12L13 8L15 8.5H16L17 4L19 3.5L20 1.5Z" fill="#F5FF85" fill-opacity="0.9"/>
</svg>
