<svg width="211" height="211" viewBox="0 0 211 211" fill="none" xmlns="http://www.w3.org/2000/svg">
<circle cx="27" cy="27" r="11" fill="#585858"/>
<circle cx="27" cy="184" r="11" fill="#585858"/>
<circle cx="200.5" cy="10.5" r="5.5" fill="#585858"/>
<circle cx="208.5" cy="2.5" r="2.5" fill="#585858"/>
<circle cx="169.5" cy="42.5" r="2.5" fill="#585858"/>
<circle cx="41.5" cy="42.5" r="2.5" fill="#585858"/>
<circle cx="2.5" cy="208.5" r="2.5" fill="#585858"/>
<circle cx="80.5" cy="130.5" r="2.5" fill="#585858"/>
<circle cx="129.5" cy="130.5" r="2.5" fill="#585858"/>
<circle cx="129.5" cy="81.5" r="2.5" fill="#585858"/>
<circle cx="80.5" cy="81.5" r="2.5" fill="#585858"/>
<circle cx="208.5" cy="208.5" r="2.5" fill="#585858"/>
<circle cx="2.5" cy="2.5" r="2.5" fill="#585858"/>
<circle cx="41.5" cy="169.5" r="2.5" fill="#585858"/>
<circle cx="169.5" cy="169.5" r="2.5" fill="#585858"/>
<circle cx="161.5" cy="50.5" r="5.5" fill="#585858"/>
<circle cx="121.5" cy="89.5" r="5.5" fill="#585858"/>
<circle cx="10.5" cy="200.5" r="5.5" fill="#585858"/>
<circle cx="49.5" cy="161.5" r="5.5" fill="#585858"/>
<circle cx="88.5" cy="122.5" r="5.5" fill="#585858"/>
<circle cx="200.5" cy="200.5" r="5.5" fill="#585858"/>
<circle cx="161.5" cy="161.5" r="5.5" fill="#585858"/>
<circle cx="121.5" cy="122.5" r="5.5" fill="#585858"/>
<circle cx="10.5" cy="10.5" r="5.5" fill="#585858"/>
<circle cx="49.5" cy="50.5" r="5.5" fill="#585858"/>
<circle cx="88.5" cy="89.5" r="5.5" fill="#585858"/>
<circle cx="105" cy="106" r="11" fill="#585858"/>
<circle cx="184" cy="27" r="11" fill="#585858"/>
<circle cx="184" cy="184" r="11" fill="#585858"/>
<circle cx="145" cy="67" r="11" fill="#585858"/>
<circle cx="66" cy="67" r="11" fill="#585858"/>
<circle cx="66" cy="145" r="11" fill="#585858"/>
<circle cx="145" cy="145" r="11" fill="#585858"/>
</svg>
