<svg width="82" height="85" viewBox="0 0 82 85" fill="none" xmlns="http://www.w3.org/2000/svg">
<path id="DZA" d="M29 8.5L27 11V12L28 12.5V15L27.5 17.5L28 20L28.5 21.5L29.5 22.5L30.5 23L29.5 23.5L29 24.5L29.5 25.5H28.5H27.5L25 25L22.5 25.5L23 27L18.5 27.5V28.5L17.5 29L18.5 30L18 31L16 32L13.5 33.5L12.5 35.5H11L9.5 36.5L7.5 37L4.5 37.5L1.5 39L0 40.5V48L44.5 80.5L45 81.5L46.5 82V83.5L47 84.5L54 83.5L61 78L81.5 66L79.5 61.5L79 61L78.5 61.5L76.5 61H75.5L74.5 59.5L74 57L72 54.5L71.5 52L72.5 51.5V38.5L71.5 37.5L70 36L69.5 35L70 34H72.5L68.5 25L66.5 23.5V21L64.5 20L64 17.5L65.5 14L67.5 12.5L68.5 11L67.5 8.5V4L67 3.5L68.5 2L66 1.5L64.5 1H62L61 0.5H59.5L58.5 2L56.5 2.5H55L53.5 1.5H51L48 2L46 2.5L45 3.5H39.5L37.5 4.5L35.5 5.5L34 7L31 7.5L29 8.5Z" fill="#FF79B9" fill-opacity="0.9"/>
</svg>
