<svg width="53" height="52" viewBox="0 0 53 52" fill="none" xmlns="http://www.w3.org/2000/svg">
<path id="FRA" d="M38 8H39.5L40 7.5L41.5 9.5L42.5 9L43 9.5H45L45.5 10H46L47.5 10.5V11.5H51L51.5 12.5L53 13.5L50 17.5L50.5 21.5L48 22V23L46 25.5L44.5 28L44 30.5L46 29H48L47.5 35L47 37L48 39L48.5 41H50.5V44L48.5 44.5L47.5 45V46.5L45 48L34 46.5L32.5 48V49.5L33 51L32.5 52L28 51.5L26 50.5L22.5 50H19L18 48.5L15 48L13 46.5L14.5 45L15.5 38V31.5V29.5L13.5 28.5L12 27L11.5 24L9.5 23L6.5 22L4.5 21L2 20.5L1.5 18.5L0 17L2.5 15.5L7 14L10 15H14L12.5 11L13 8.5H15L16 10H20L21 8.5L23 7.5L26 6L27 1L28 0.5L31.5 0L32.5 1.5L34 3.5L35.5 4.5L37.5 6.5L38 8Z" fill="#FF6D6D" fill-opacity="0.9"/>
</svg>
