<svg width="49" height="58" viewBox="0 0 49 58" fill="none" xmlns="http://www.w3.org/2000/svg">
<g id="ITA">
<g id="ITA_2">
<path id="ITA_3" d="M21 1.5L21.5 1L22.5 0.5V2L23.5 3L26 4L28.5 4.5L28 5.5V6.5L28.5 7.5L28 8.5L28.5 9.5L28 9H27.5H26L24.5 9.5L23.5 10.5L23 12H24.5L25 12.5L24.5 14L23.5 13.5V15V16.5L24 17.75L25 18.5L27 19.5L28.5 21L29.5 23L30 25L31 27L32.5 28.5L34 29.5L35 31L35.5 31.5L36 31L36.5 30L37.5 29.5L38.5 30L39.5 31L39 31.5L37.5 32V32.5L40 33L42 34L43.5 35L45.5 36.5L47 37.5L48 39L48.5 40L47.5 41H46.5L45.5 39L44 38L43 37.5L42 38.5L41 39V41L42 42.5L43.5 43.5V44.5L42.5 45.5L41.5 46L41 47V48.5L40.5 49.5L38.5 50V51.5H37L36 50.5V52L35.5 52.5L35 53.5V54.5L35.5 55.5L36 56.5L35.5 57.5L34.5 58L33.5 57.5H32.5L32 56.5L30.5 56L29.5 55L28 54L25.5 53L24.5 52.5L24 52V50L25.5 51L26.5 50H28L28.5 51H31.5L32 50.5L33.5 50H36L37 49.5L37.5 48L39 47.5L38.5 46V44.5V43.5L37.5 42.5L37 40.5L36.5 39.5L35 40L34 38.5L32.5 37.5L32 36.5L31 37L31.5 36L31 35.5L30 36L29.5 34.5L28.5 34V34.5L27 33.5H25.5L25 32.5L23.5 31.5L22.5 30L21.5 29L20 28L19.5 27L18.5 26L17.5 25.5L16.5 24.5L16 23.5L15 23V22V21L14.5 19.5L14 19L13.5 18L12.5 17.75L11.5 17L10.5 16.5L9.59624 16.2019H8.59624L8 16.5L7.5 17L7 18L6 19L5 19.5L3.5 20V17H1.5L1 15L0 13L0.5 11L1 5V6.5L1.5 7L2.5 7.5L5 7L6 6L7 4.5H7.5V6L8 7L9.5 7.5L10.5 7V6L13 5.5H14.5L15 3.5V2L16 2.5H17L18 2L19.5 1.5H21Z" fill="#FFD990" fill-opacity="0.9"/>
<path id="ITA_4" d="M11.5001 34L12.0001 35L12.5001 36.5L13.0001 39.5L12.5001 41.5V43L12.0001 44H11.0001L10.5001 44.5V45.5L9.50006 46L8.00006 45.5L7.00006 44L7.50006 42.5V40.5V38.5L6.50006 37.5L7.00006 35.5L8.00006 36L9.00006 35L9.50006 34L10.5001 33.5L11.5001 34Z" fill="#FFD990" fill-opacity="0.9"/>
<path id="ITA_5" d="M11.5 24V25.5V26.5L12 27V28.5L11.7991 29L11.5 30V30.5L11 31.5L10.5 32.5H10V32L8.5 31.5L9 31L8 30.5L8.5 29.5L7.5 28.5L8 27L9 26L9.5 25.5H10L11 25V23.5L11.5 24Z" fill="#FFD990" fill-opacity="0.9"/>
</g>
<path id="ITA_6" d="M14.5 23.5L14.5 24L14 24.5H13L13.5 24L14.5 23.5Z" fill="#FFD990" fill-opacity="0.9"/>
</g>
</svg>
