<svg width="23" height="19" viewBox="0 0 23 19" fill="none" xmlns="http://www.w3.org/2000/svg">
<path id="LTU" d="M14.5 1.5L15.5 0.5L16.5 2L17 3L18.5 3.5L19.5 4L21 4.5L21.5 5.5L22.5 6.5L22 8.5L23 9V10L22 10.5L20.5 11.5L19 13.5V14.5L18.5 15.5L20 16L19 17.5L18.5 16L17.5 16.5V17L17 17.5L16.5 17L16 18V18.5L14.5 19L13 18.5L11 19L9.5 18.5L9 17H7.5L7 15.5L7.5 14L8 13L7.5 11.5L6.5 10.5L4 11L2 10L0.5 9.5L0 8.5L0.5 7.5V6L0 5V4.5V3.5L1 3L2.5 2L3.5 1.5H5L6 2L6.5 1.5H8L10 2H12L13 2.5L14.5 1.5Z" fill="#FF6D6D" fill-opacity="0.9"/>
</svg>
