<svg width="699" height="335" viewBox="0 0 699 335" fill="none" xmlns="http://www.w3.org/2000/svg">
<g id="Group 1">
<path id="CAN" d="M106 32L110 33.5H115L122 32L126.5 29L134.5 38L135 39.5L134 42L135.5 43L138 41L137 39.5L135 32L139.5 29L144.5 23L344 118.5L347 153L349.5 155.5L348.5 158L349 165L345.5 168L340.5 168.5L332.5 175L327 177L324 176H305L302.5 181.5L299 182L295 186L287 196.5L295 188L301 184L304.5 183L308 182.5H311L313.5 183.5L315 186.5L312.5 189H308L305.5 190L308.5 191.5L312.5 191L311.5 196L312.5 198.5L315 201.5L319.5 203L324.5 203.5L326 200.5L328 196.5H330V200.5L332 199.5L333.5 201.5L331.5 204.5H327V206L319.5 209.5L315 211L309.5 216.5L307 214V210.5L311.5 207L316.5 206.5V205H312.5V203.5L303.5 208L300 205L299 194.5H291.5L288.5 205L285 206.5L283.5 208H278.5H270L262.5 213.5L254.5 214L250 217.5L252.5 218L253 219.5L248.5 220.5L244.5 221.5L241.5 223L240.5 224.5L236.5 225L239.5 219.5L242 217.5V213.5L243 206.5L247 210.5L249.5 211L250.75 208.75L247 203.5L242.5 201.5L233 200L231 197.5L229.5 193.5L229 190.5L225.5 190L224.5 185.5L220.5 185L217.5 183.5L213.5 185.5L211.5 188.5H202L198.5 186L191 184.5L189.5 182L187 181L186.5 183.5H74.5L66.5 176L60.5 173L54 171L53 163L48.5 161L49 155.5L45 156L44 154V149.5L43 147.5L45 146.5V136L42 134.5L38 131.5L25 109.5L22 107.5L17 111V114.5L13 112.5V109.5L7.5 107.5V102H0L1.5 12H7.5L13 18L20 21V15L25 10L30.5 15L41.5 6H48.5H52.5V0.5L58 6V10L63 15L64 8.5L66.5 6L69 8.5V15L72.5 14L73 9H81L85.5 15L91 15.5L95 19.5L101.5 21L104.5 19.5L111 25L110 28H106L105 30.5L106 32Z" fill="#FF6D6D" fill-opacity="0.8"/>
<path id="SVK" d="M653 180.5L658 181.5H663L663.5 180.5L664.5 180L666 181.5L667 182.5H669L668.5 185L667 187.5L664.5 187L663.5 186L661 186.5L660.5 187.5L659.5 188.5H656.5L654.5 189.5L653.5 190V191L652.5 191.5H650L648.5 191L648 190L647 189.5L646 188.5L645.5 186.5L645 185.5L648.5 185L651.5 183L653 180.5Z" fill="#FFD990" fill-opacity="0.9"/>
<path id="POL" d="M670.5 149H672L672.5 150.5L673.5 154.5V160L671 162L673.5 167.5L675 173L674.5 175L671 177L670.5 179.5L669 182.5H667L664.5 180L663.5 180.5L663 181.5H658L653 180.5L650.5 177L648 175L646 176L644 175L642.5 172.5L638.5 171L637 166.5L636 159.5L634.5 158L636 157V151.5L643.5 147L648.5 145H652L653 149L656 148H658.5L662 149H666.5H670.5Z" fill="#F5FF85" fill-opacity="0.9"/>
<path id="CZE" d="M648 175L650.5 177L653 180.5L651.5 183L648.5 185L645 185.5L642.464 185L642 184H639.5L637 186L633 185.5L627.5 180L626.5 177L628.5 175H631L631.5 174L634 173L635 171H638.5L642.464 172.5L644 175L646 176L648 175Z" fill="#FF6D6D" fill-opacity="0.9"/>
<path id="BEL" d="M595 167L597 168L598.5 169L599.5 170V172.5L601 172L601.5 173L602.5 174.5V176.5L601 177L600 178.5L599.5 180L598.5 180.5L597 178.5L596.5 179H595L594.5 177.5L592.5 175.5L591 174.5L589.5 172.5L588.5 171L589 170L590 169L593 168.5L595 167Z" fill="#F5FF85" fill-opacity="0.9"/>
<path id="LUX" d="M601 177L602.5 176.5L602 177.5L602.5 178.5V180L603 181H602.5L602 180.5H600L599.5 180L600 178.5L601 177Z" fill="#FF79B9" fill-opacity="0.9"/>
<path id="MCO" d="M605.5 215.5L606 215.5V216.5L605 217L604.5 217V216L605.5 215.5Z" fill="white" fill-opacity="0.9"/>
<path id="CHE" d="M611.5 192.5L611 192L611.5 191.5H612.5L612 192.5H612.5H613.5L615.5 193.5V194L615 195L615.5 196L615 196.5H616.5L617.5 197H619V198.5L618.5 200.5H617L614.5 201V202L613.5 202.5L612 202L611.5 201V199.5H611L610 201L609 202L606.5 202.5L605.5 202L605 201.5V201V200H603L601 201.5L601.5 199L603 196.5L605 194V193L607.469 192.5H611.5Z" fill="#FF79B9" fill-opacity="0.9"/>
<path id="LIE" opacity="0.7" d="M616 194L616.5 195.5V196.5H615L615.5 196L615 195L615.5 194V193.5L616 194Z" fill="#FF6D6D" fill-opacity="0.9"/>
<path id="DEU" d="M623 151.5L627.5 148L631 147.5L632.5 150.5L634.5 153L636 151.5V157L634.5 158L636 159.5L637 166.5L638.5 171H635L634 173L631.5 174L631 175H628.5L626.5 177L627.5 180L629 181.5L633 185.5L632 187.5L630 188L629 192.5H628L626 192L625 192.5H623.5L623 193.5H621.5L621 192.5L619.5 193L618.5 194L617.5 193.5L616.5 192.5L614.5 192L613.5 192.5H612.5H612L612.5 191.5H611.5L611 192L611.5 192.5H607.5L607 188.5L610 184.5L608.5 183.5L608 182.5H604.5V181.5L603 181L602.5 180V178.5L602 177.5L602.5 176.5V174.5L601.5 173L600.5 171L601 166H604V164L605.5 163.5L604 161L605.5 159V154L608.5 152.5L611.5 154.5V156.5H613L612 155V153L613 150.5L611.5 144.5L616.5 145L618 148L620.5 149L621.5 150.5L623 151.5Z" fill="#FFD991" fill-opacity="0.9"/>
<path id="FRA" d="M595 179H596.5L597 178.5L598.5 180.5L599.5 180L600 180.5H602L602.5 181H603L604.5 181.5V182.5H608L608.5 183.5L610 184.5L607 188.5L607.5 192.5L605 193V194L603 196.5L601.5 199L601 201.5L603 200H605L604.5 206L604 208L605 210L605.5 212H607.5V215L605.5 215.5L604.5 216V217.5L602 219L591 217.5L589.5 219V220.5L590 222L589.5 223L585 222.5L583 221.5L579.5 221H576L575 219.5L572 219L570 217.5L571.5 216L572.5 209V202.5V200.5L570.5 199.5L569 198L568.5 195L566.5 194L563.5 193L561.5 192L559 191.5L558.5 189.5L557 188L559.5 186.5L564 185L567 186H571L569.5 182L570 179.5H572L573 181H577L578 179.5L580 178.5L583 177L584 172L585 171.5L588.5 171L589.5 172.5L591 174.5L592.5 175.5L594.5 177.5L595 179Z" fill="#FF6D6D" fill-opacity="0.9"/>
<path id="ESP" d="M570 217.5L572 219L575 219.5L576 221H579.5L583 221.5L585 222.5L589.5 223L590.5 223.5L591 225L589.5 226L588 227.5L586 228.5L582.5 230L581 231.5L579 234L577.5 236.5L576 238V240L577.5 241L578 242.5L576.5 244L575.5 246L574.5 248.5H572.5L570.5 250L569.5 252.5L568.5 253L565.5 252.5H561L560 253.5L558.5 254L557.5 255L555.5 256H554.5L553.5 255.5L552 254L551 252.5L550 251.5L547.5 249.5V247.5L548.5 246.5L550 246L549 244.5L548.5 242L549 240L548.5 239.5L547 237H550V234.5L550.5 231L551.5 229.5L552.5 228L553 226.5L552 225.5L550.5 224.5L548 225.5H545L545.5 224.5L545 224H543.5L541.5 224.5V224L541 221.5L539.5 220.5L540 218.5L545 215L547 215.5H554L570 217.5Z" fill="#FFD990" fill-opacity="0.9"/>
<path id="PRT" d="M541.5 224.5L543.5 224H545L545.5 224.5L545 225.5H548L550.5 224.5L552 225.5L553 226.5L552.5 228L550.5 231L550 234.5V237H547L548.5 239.5L549 240L548.5 242L549 244.5L550 246L548.5 246.5L547.5 247.5V250L547 251L545 251.5L542.5 251H540.5L541.5 248.5L542 245V243.5H540L539.5 242.5L538.5 242L539 240L539.5 238L540 238.5L540.5 236.5L541.5 234.5L542 230.5L541.5 227V225V224.5Z" fill="#FF6D6D" fill-opacity="0.9"/>
<path id="HUN" d="M653.5 191V190L656.5 188.5H659.5L660.5 187.5L661 186.5L663.5 186L664.5 187L667 187.5L668.5 188.5L670 190L669.5 191.5L668 192L667 193L666 194.5L665 196.5L663.5 198V199.5L662 200.5L659.5 201H657L655 202H654L653 202.5H651L650.5 203H649.5L648.5 202L646 200L645.5 199L644 197V196.5L643.5 195L645 194.5V193L644 192L644.5 191H646L646.5 190L647 189.5L648 190L648.5 191L650 191.5H652.5L653.5 191Z" fill="#FF6D6D" fill-opacity="0.9"/>
<path id="SVN" d="M632.5 199.5H634L635.5 200L637 199.5L637.5 198.5L639 198L640 198.5H641L642 198L642.5 197V196L643.5 195L644 196.5V197L645.5 199L644 198.5L642 199.5L641.5 200.5L640.5 201.5L640 203L639 203.5L638.5 205L637.5 205.5L636 204.5L634.5 205.5H633L632 205L632.5 204.5L632 203.5L632.5 202.5L632 201.5V200.5L632.5 199.5Z" fill="#FF79B9" fill-opacity="0.9"/>
<path id="AUT" d="M633 185.5L637 186L639.5 184H642L642.5 185L645 185.5L645.5 186.5L646 188.5L647 189.5L646.5 190L646 191H644.5L644 192L645 193V194.5L643.5 195L642.5 196V197L642 198L641 198.5H640L639 198L637.5 198.5L637 199.5L635.5 200L634 199.5H632.5L630 199L627.5 198L626.5 197V195.5L625.5 196L625 196.5H623.5L622 197L621 197.5H620L619 197H617.5L616.5 196.5V195.5L616 194L615.5 193.5L613.5 192.5L614.5 192L616.5 192.5L617.5 193.5L618.5 194L619.5 193L621 192.5L621.5 193.5H623L623.5 192.5H625L626 192L628 192.5H629L630 188L632 187.5L633 185.5Z" fill="#F5FF85" fill-opacity="0.9"/>
<path id="DZA" d="M572 258.5L570 261V262L571 262.5V265L570.5 267.5L571 270L571.5 271.5L572.5 272.5L573.5 273L572.5 273.5L572 274.5L572.5 275.5H571.5H570.5L568 275L565.5 275.5L566 277L561.5 277.5V278.5L560.5 279L561.5 280L561 281L559 282L556.5 283.5L555.5 285.5H554L552.5 286.5L550.5 287L547.5 287.5L544.5 289L543 290.5V298L587.5 330.5L588 331.5L589.5 332V333.5L590 334.5L597 333.5L604 328L624.5 316L622.5 311.5L622 311L621.5 311.5L619.5 311H618.5L617.5 309.5L617 307L615 304.5L614.5 302L615.5 301.5V288.5L614.5 287.5L613 286L612.5 285L613 284H615.5L611.5 275L609.5 273.5V271L607.5 270L607 267.5L608.5 264L610.5 262.5L611.5 261L610.5 258.5V254L610 253.5L611.5 252L609 251.5L607.5 251H605L604 250.5H602.5L601.5 252L599.5 252.5H598L596.5 251.5H594L591 252L589 252.5L588 253.5H582.5L580.5 254.5L578.5 255.5L577 257L574 257.5L572 258.5Z" fill="#FF79B9" fill-opacity="0.9"/>
<g id="ITA">
<g id="ITA_2">
<path id="ITA_3" d="M625 196.5L625.5 196L626.5 195.5V197L627.5 198L630 199L632.5 199.5L632 200.5V201.5L632.5 202.5L632 203.5L632.5 204.5L632 204H631.5H630L628.5 204.5L627.5 205.5L627 207H628.5L629 207.5L628.5 209L627.5 208.5V210V211.5L628 212.75L629 213.5L631 214.5L632.5 216L633.5 218L634 220L635 222L636.5 223.5L638 224.5L639 226L639.5 226.5L640 226L640.5 225L641.5 224.5L642.5 225L643.5 226L643 226.5L641.5 227V227.5L644 228L646 229L647.5 230L649.5 231.5L651 232.5L652 234L652.5 235L651.5 236H650.5L649.5 234L648 233L647 232.5L646 233.5L645 234V236L646 237.5L647.5 238.5V239.5L646.5 240.5L645.5 241L645 242V243.5L644.5 244.5L642.5 245V246.5H641L640 245.5V247L639.5 247.5L639 248.5V249.5L639.5 250.5L640 251.5L639.5 252.5L638.5 253L637.5 252.5H636.5L636 251.5L634.5 251L633.5 250L632 249L629.5 248L628.5 247.5L628 247V245L629.5 246L630.5 245H632L632.5 246H635.5L636 245.5L637.5 245H640L641 244.5L641.5 243L643 242.5L642.5 241V239.5V238.5L641.5 237.5L641 235.5L640.5 234.5L639 235L638 233.5L636.5 232.5L636 231.5L635 232L635.5 231L635 230.5L634 231L633.5 229.5L632.5 229V229.5L631 228.5H629.5L629 227.5L627.5 226.5L626.5 225L625.5 224L624 223L623.5 222L622.5 221L621.5 220.5L620.5 219.5L620 218.5L619 218V217V216L618.5 214.5L618 214L617.5 213L616.5 212.75L615.5 212L614.5 211.5L613.596 211.202H612.596L612 211.5L611.5 212L611 213L610 214L609 214.5L607.5 215V212H605.5L605 210L604 208L604.5 206L605 200V201.5L605.5 202L606.5 202.5L609 202L610 201L611 199.5H611.5V201L612 202L613.5 202.5L614.5 202V201L617 200.5H618.5L619 198.5V197L620 197.5H621L622 197L623.5 196.5H625Z" fill="#FFD990" fill-opacity="0.9"/>
<path id="ITA_4" d="M615.5 229L616 230L616.5 231.5L617 234.5L616.5 236.5V238L616 239H615L614.5 239.5V240.5L613.5 241L612 240.5L611 239L611.5 237.5V235.5V233.5L610.5 232.5L611 230.5L612 231L613 230L613.5 229L614.5 228.5L615.5 229Z" fill="#FFD990" fill-opacity="0.9"/>
<path id="ITA_5" d="M615.5 219V220.5V221.5L616 222V223.5L615.799 224L615.5 225V225.5L615 226.5L614.5 227.5H614V227L612.5 226.5L613 226L612 225.5L612.5 224.5L611.5 223.5L612 222L613 221L613.5 220.5H614L615 220V218.5L615.5 219Z" fill="#FFD990" fill-opacity="0.9"/>
</g>
<path id="ITA_6" d="M618.5 218.5L618.5 219L618 219.5H617L617.5 219L618.5 218.5Z" fill="#FFD990" fill-opacity="0.9"/>
</g>
<path id="ROU" d="M689.5 194L691.5 196L692 197L692.5 198.5V201L692 203L692.5 205L693.5 206H694.5L695.5 205.5L696.5 205L697.5 204H698.5L699 205L698.5 208L697.5 208.5H696.5L696 207.5L695 208V209L694 210V211.5L694.5 213L694 214.5L693.5 215L692 214.5L691 213.5L690 212.5L689 213L688 212.5L687 213L685.5 213.5L684.5 214L683 214.5L682 215.5L680.5 216L678.5 215.5L676.5 215L673.5 214.5H671L670.5 213.5L671.5 213L671 212H669.5L669 211.5L669.5 210.5H670L669.5 209.5H669L668.5 210H667L665.5 209L664.5 207L663.5 206L662.5 205L662 203.5L661 202.5L659.5 201L662 200.5L663.5 199.5V198L665 196.5L666 194.5L667 193L668 192L669.5 191.5L670 190L671.5 189.5L673 190.5L675 190L677.5 190.5L678.5 191.5L679.5 190.5L683 190L684 189L685.5 188L687 189L688 190.5L689 192.5L689.5 194Z" fill="#F5FF85" fill-opacity="0.9"/>
<path id="BGR" d="M680.5 216L682 215.5L683 214.5L684.5 214L685.5 213.5L687 213L688 212.5L689 213L690 212.5L692 214.5L693.5 215L694 214.5V216V217.5L693 217L692 217.5L691.5 218V219V220L690.5 221L690 222L689.5 222.5H690L690.5 223L691 223.5L691.5 225H689.5L688 224.5H687H686L685.5 225V225.5H685L684 225L683.5 225.5L684 226V227L683.5 227.5L683 228H681H680.5L679.5 227.5L679 228L678.5 227H678L677.5 227.5L676.5 227L675.5 227.5H675L674 228L673 227.5L672 228L671.5 227.5V227L670.5 226.5V226L671 225.5L670.5 225L669.5 224.5L668.5 223H669L669.5 221.5L669 220.5L669.5 219.5L670.5 219L671 218L670.5 217.5L669.5 217L668.5 216V214.5L669 213L669.5 212H671L671.5 213L670.5 213.5L671 214.5H673.5L676.5 215L680.5 216Z" fill="#FFD990" fill-opacity="0.9"/>
<path id="MKD" d="M667.5 223.5L668.5 223L669.5 224.5L670.5 225L671 225.5L670.5 226V226.5V228.5H670H669.5V230H668.5H667L666 230.5L665.5 231H665L664.5 231.5H663.5L663 231L662.5 231.5L662 230.5L661.5 230L661 229.5V228.5L660.5 228L661 227.5L660.5 226L661 225H662V224L663 223.5L664 224L664.268 223.274L665.5 223.5L666.5 223L667.5 223.5Z" fill="#F5FF85" fill-opacity="0.9"/>
<path id="LTU" d="M677.5 133.5L678.5 132.5L679.5 134L680 135L681.5 135.5L682.5 136L684 136.5L684.5 137.5L685.5 138.5L685 140.5L686 141V142L685 142.5L683.5 143.5L682 145.5V146.5L681.5 147.5L683 148L682 149.5L681.5 148L680.5 148.5V149L680 149.5L679.5 149L679 150V150.5L677.5 151L676 150.5L674 151L672.5 150.5L672 149H670.5L670 147.5L670.5 146L671 145L670.5 143.5L669.5 142.5L667 143L665 142L663.5 141.5L663 140.5L663.5 139.5V138L663 137V136.5V135.5L664 135L665.5 134L666.5 133.5H668L669 134L669.5 133.5H671L673 134H675L676 134.5L677.5 133.5Z" fill="#FF6D6D" fill-opacity="0.9"/>
<path id="LVA" d="M683.5 123.5L684.5 124V124.5L685 125H685.5L686 125.5L687 125L688 125.5H689L690 125V126L690.5 126.5L691 127V127.5L690.5 129V130L691 130.5L692 130V131L691.5 132L692.5 134L693 136L692 137L691 137.5L690 138V139L688.5 138.5H687.5L686 139L685.5 138.5L684.5 137.5L684 136.5L682.5 136L681.5 135.5L680 135L679.5 134L678.5 132.5L677.5 133.5L676 134.5L675 134H673L671 133.5H669.5L669 134L668 133.5H666.5L665.5 134L664 135L663 135.5V133L663.5 131.5V130.5L664 130L664.5 129.5V128.5V127.5L665 126.5L665.5 125H666L667 124.5L669.5 123.5V124.5L670 125.5L671 126L671.5 128.5L672 129L672.5 129.5H674.5L676 129L676.5 128V127L676 124L676.5 123L677 123.5L677.5 123L678 122.5L679 122L680 121.5V122H680.5V121.5L681.5 122L682 122.5L683.5 123V123.5Z" fill="#FF79B9" fill-opacity="0.9"/>
</g>
</svg>
