<svg width="40" height="28" viewBox="0 0 40 28" fill="none" xmlns="http://www.w3.org/2000/svg">
<path id="ROU" d="M30.5 6L32.5 8L33 9L33.5 10.5V13L33 15L33.5 17L34.5 18H35.5L36.5 17.5L37.5 17L38.5 16H39.5L40 17L39.5 20L38.5 20.5H37.5L37 19.5L36 20V21L35 22V23.5L35.5 25L35 26.5L34.5 27L33 26.5L32 25.5L31 24.5L30 25L29 24.5L28 25L26.5 25.5L25.5 26L24 26.5L23 27.5L21.5 28L19.5 27.5L17.5 27L14.5 26.5H12L11.5 25.5L12.5 25L12 24H10.5L10 23.5L10.5 22.5H11L10.5 21.5H10L9.5 22H8.00007L6.5 21L5.5 19L4.50007 18L3.5 17L3 15.5L2 14.5L0.5 13L3.00007 12.5L4.50007 11.5V10L6.00007 8.5L7.00007 6.5L8.00007 5L9.00007 4L10.5001 3.5L11 2L12.5 1.5L14 2.5L16.0001 2L18.5 2.5L19.5 3.5L20.5 2.5L24 2L25 1L26.5 0L28 1L29 2.5L30 4.5L30.5 6Z" fill="#F5FF85" fill-opacity="0.9"/>
</svg>
